# xmcd CD database file
#
# Track frame offsets:
#	150
#	20735
#	39265
#	61645
#	84322
#	103585
#	123402
#	144447
#
# Disc length: 2234 seconds
#
# Revision: 0
# Processed by: cddbd v1.5.2PL0 Copyright (c) Steve Scherf et al.
# Submitted via: CDex 1.70beta2
#
DISCID=5c08b808
DTITLE=Mario Ortiz - Ritmo Y Sabor
DYEAR=1985
DGENRE=Salsa
TTITLE0=Me Quedare Solito
TTITLE1=Negra Quiereme
TTITLE2=Caray
TTITLE3=De Ninguna Manera
TTITLE4=Doña Tranquilidad
TTITLE5=Amor Estudiantil
TTITLE6=Quitenmelo Que Me Mata
TTITLE7=Lola
EXTD=YEAR: 1985
EXTT0=
EXTT1=
EXTT2=
EXTT3=
EXTT4=
EXTT5=
EXTT6=
EXTT7=
PLAYORDER=
